{
    "asset": {
        "generator": "FBX2glTF v0.9.7",
        "version": "2.0"
    },
    "scene": 0,
    "buffers": [
        {
            "byteLength": 672988,
            "uri": "data:application/octet-stream;base64,"
        }
    ],
    "bufferViews": [
        {
            "buffer": 0,
            "byteLength": 784,
            "byteOffset": 0
        },
        {
            "buffer": 0,
            "byteLength": 2352,
            "byteOffset": 784
        },
        {
            "buffer": 0,
            "byteLength": 3136,
            "byteOffset": 3136
        },
        {
            "buffer": 0,
            "byteLength": 3136,
            "byteOffset": 6272
        },
        {
            "buffer": 0,
            "byteLength": 3136,
            "byteOffset": 9408
        },
        {
            "buffer": 0,
            "byteLength": 3136,
            "byteOffset": 12544
        },
        {
            "buffer": 0,
            "byteLength": 3136,
            "byteOffset": 15680
        },
        {
            "buffer": 0,
            "byteLength": 3136,
            "byteOffset": 18816
        },
        {
            "buffer": 0,
            "byteLength": 3136,
            "byteOffset": 21952
        },
        {
            "buffer": 0,
            "byteLength": 3136,
            "byteOffset": 25088
        },
        {
            "buffer": 0,
            "byteLength": 3136,
            "byteOffset": 28224
        },
        {
            "buffer": 0,
            "byteLength": 3136,
            "byteOffset": 31360
        },
        {
            "buffer": 0,
            "byteLength": 3136,
            "byteOffset": 34496
        },
        {
            "buffer": 0,
            "byteLength": 3136,
            "byteOffset": 37632
        },
        {
            "buffer": 0,
            "byteLength": 3136,
            "byteOffset": 40768
        },
        {
            "buffer": 0,
            "byteLength": 3136,
            "byteOffset": 43904
        },
        {
            "buffer": 0,
            "byteLength": 3136,
            "byteOffset": 47040
        },
        {
            "buffer": 0,
            "byteLength": 3136,
            "byteOffset": 50176
        },
        {
            "buffer": 0,
            "byteLength": 3136,
            "byteOffset": 53312
        },
        {
            "buffer": 0,
            "byteLength": 3136,
            "byteOffset": 56448
        },
        {
            "buffer": 0,
            "byteLength": 3136,
            "byteOffset": 59584
        },
        {
            "buffer": 0,
            "byteLength": 3136,
            "byteOffset": 62720
        },
        {
            "buffer": 0,
            "byteLength": 3136,
            "byteOffset": 65856
        },
        {
            "buffer": 0,
            "byteLength": 3136,
            "byteOffset": 68992
        },
        {
            "buffer": 0,
            "byteLength": 3136,
            "byteOffset": 72128
        },
        {
            "buffer": 0,
            "byteLength": 3136,
            "byteOffset": 75264
        },
        {
            "buffer": 0,
            "byteLength": 3136,
            "byteOffset": 78400
        },
        {
            "buffer": 0,
            "byteLength": 3136,
            "byteOffset": 81536
        },
        {
            "buffer": 0,
            "byteLength": 3136,
            "byteOffset": 84672
        },
        {
            "buffer": 0,
            "byteLength": 3136,
            "byteOffset": 87808
        },
        {
            "buffer": 0,
            "byteLength": 3136,
            "byteOffset": 90944
        },
        {
            "buffer": 0,
            "byteLength": 3136,
            "byteOffset": 94080
        },
        {
            "buffer": 0,
            "byteLength": 3136,
            "byteOffset": 97216
        },
        {
            "buffer": 0,
            "byteLength": 3136,
            "byteOffset": 100352
        },
        {
            "buffer": 0,
            "byteLength": 3136,
            "byteOffset": 103488
        },
        {
            "buffer": 0,
            "byteLength": 3136,
            "byteOffset": 106624
        },
        {
            "buffer": 0,
            "byteLength": 3136,
            "byteOffset": 109760
        },
        {
            "buffer": 0,
            "byteLength": 3136,
            "byteOffset": 112896
        },
        {
            "buffer": 0,
            "byteLength": 2352,
            "byteOffset": 116032
        },
        {
            "buffer": 0,
            "byteLength": 3136,
            "byteOffset": 118384
        },
        {
            "buffer": 0,
            "byteLength": 2352,
            "byteOffset": 121520
        },
        {
            "buffer": 0,
            "byteLength": 3136,
            "byteOffset": 123872
        },
        {
            "buffer": 0,
            "byteLength": 55080,
            "byteOffset": 127008,
            "target": 34963
        },
        {
            "buffer": 0,
            "byteLength": 92316,
            "byteOffset": 182088,
            "target": 34962
        },
        {
            "buffer": 0,
            "byteLength": 92316,
            "byteOffset": 274404,
            "target": 34962
        },
        {
            "buffer": 0,
            "byteLength": 61544,
            "byteOffset": 366720,
            "target": 34962
        },
        {
            "buffer": 0,
            "byteLength": 61544,
            "byteOffset": 428264,
            "target": 34962
        },
        {
            "buffer": 0,
            "byteLength": 123088,
            "byteOffset": 489808,
            "target": 34962
        },
        {
            "buffer": 0,
            "byteLength": 8604,
            "byteOffset": 612896,
            "target": 34963
        },
        {
            "buffer": 0,
            "byteLength": 18324,
            "byteOffset": 621500,
            "target": 34962
        },
        {
            "buffer": 0,
            "byteLength": 18324,
            "byteOffset": 639824,
            "target": 34962
        },
        {
            "buffer": 0,
            "byteLength": 12216,
            "byteOffset": 658148,
            "target": 34962
        },
        {
            "buffer": 0,
            "byteLength": 2624,
            "byteOffset": 670364
        }
    ],
    "scenes": [
        {
            "name": "Root Scene",
            "nodes": [
                0
            ]
        }
    ],
    "accessors": [
        {
            "componentType": 5126,
            "type": "SCALAR",
            "count": 196,
            "bufferView": 0,
            "byteOffset": 0,
            "min": [
                0.0
            ],
            "max": [
                8.125
            ]
        },
        {
            "componentType": 5126,
            "type": "VEC3",
            "count": 196,
            "bufferView": 1,
            "byteOffset": 0
        },
        {
            "componentType": 5126,
            "type": "VEC4",
            "count": 196,
            "bufferView": 2,
            "byteOffset": 0
        },
        {
            "componentType": 5126,
            "type": "VEC4",
            "count": 196,
            "bufferView": 3,
            "byteOffset": 0
        },
        {
            "componentType": 5126,
            "type": "VEC4",
            "count": 196,
            "bufferView": 4,
            "byteOffset": 0
        },
        {
            "componentType": 5126,
            "type": "VEC4",
            "count": 196,
            "bufferView": 5,
            "byteOffset": 0
        },
        {
            "componentType": 5126,
            "type": "VEC4",
            "count": 196,
            "bufferView": 6,
            "byteOffset": 0
        },
        {
            "componentType": 5126,
            "type": "VEC4",
            "count": 196,
            "bufferView": 7,
            "byteOffset": 0
        },
        {
            "componentType": 5126,
            "type": "VEC4",
            "count": 196,
            "bufferView": 8,
            "byteOffset": 0
        },
        {
            "componentType": 5126,
            "type": "VEC4",
            "count": 196,
            "bufferView": 9,
            "byteOffset": 0
        },
        {
            "componentType": 5126,
            "type": "VEC4",
            "count": 196,
            "bufferView": 10,
            "byteOffset": 0
        },
        {
            "componentType": 5126,
            "type": "VEC4",
            "count": 196,
            "bufferView": 11,
            "byteOffset": 0
        },
        {
            "componentType": 5126,
            "type": "VEC4",
            "count": 196,
            "bufferView": 12,
            "byteOffset": 0
        },
        {
            "componentType": 5126,
            "type": "VEC4",
            "count": 196,
            "bufferView": 13,
            "byteOffset": 0
        },
        {
            "componentType": 5126,
            "type": "VEC4",
            "count": 196,
            "bufferView": 14,
            "byteOffset": 0
        },
        {
            "componentType": 5126,
            "type": "VEC4",
            "count": 196,
            "bufferView": 15,
            "byteOffset": 0
        },
        {
            "componentType": 5126,
            "type": "VEC4",
            "count": 196,
            "bufferView": 16,
            "byteOffset": 0
        },
        {
            "componentType": 5126,
            "type": "VEC4",
            "count": 196,
            "bufferView": 17,
            "byteOffset": 0
        },
        {
            "componentType": 5126,
            "type": "VEC4",
            "count": 196,
            "bufferView": 18,
            "byteOffset": 0
        },
        {
            "componentType": 5126,
            "type": "VEC4",
            "count": 196,
            "bufferView": 19,
            "byteOffset": 0
        },
        {
            "componentType": 5126,
            "type": "VEC4",
            "count": 196,
            "bufferView": 20,
            "byteOffset": 0
        },
        {
            "componentType": 5126,
            "type": "VEC4",
            "count": 196,
            "bufferView": 21,
            "byteOffset": 0
        },
        {
            "componentType": 5126,
            "type": "VEC4",
            "count": 196,
            "bufferView": 22,
            "byteOffset": 0
        },
        {
            "componentType": 5126,
            "type": "VEC4",
            "count": 196,
            "bufferView": 23,
            "byteOffset": 0
        },
        {
            "componentType": 5126,
            "type": "VEC4",
            "count": 196,
            "bufferView": 24,
            "byteOffset": 0
        },
        {
            "componentType": 5126,
            "type": "VEC4",
            "count": 196,
            "bufferView": 25,
            "byteOffset": 0
        },
        {
            "componentType": 5126,
            "type": "VEC4",
            "count": 196,
            "bufferView": 26,
            "byteOffset": 0
        },
        {
            "componentType": 5126,
            "type": "VEC4",
            "count": 196,
            "bufferView": 27,
            "byteOffset": 0
        },
        {
            "componentType": 5126,
            "type": "VEC4",
            "count": 196,
            "bufferView": 28,
            "byteOffset": 0
        },
        {
            "componentType": 5126,
            "type": "VEC4",
            "count": 196,
            "bufferView": 29,
            "byteOffset": 0
        },
        {
            "componentType": 5126,
            "type": "VEC4",
            "count": 196,
            "bufferView": 30,
            "byteOffset": 0
        },
        {
            "componentType": 5126,
            "type": "VEC4",
            "count": 196,
            "bufferView": 31,
            "byteOffset": 0
        },
        {
            "componentType": 5126,
            "type": "VEC4",
            "count": 196,
            "bufferView": 32,
            "byteOffset": 0
        },
        {
            "componentType": 5126,
            "type": "VEC4",
            "count": 196,
            "bufferView": 33,
            "byteOffset": 0
        },
        {
            "componentType": 5126,
            "type": "VEC4",
            "count": 196,
            "bufferView": 34,
            "byteOffset": 0
        },
        {
            "componentType": 5126,
            "type": "VEC4",
            "count": 196,
            "bufferView": 35,
            "byteOffset": 0
        },
        {
            "componentType": 5126,
            "type": "VEC4",
            "count": 196,
            "bufferView": 36,
            "byteOffset": 0
        },
        {
            "componentType": 5126,
            "type": "VEC4",
            "count": 196,
            "bufferView": 37,
            "byteOffset": 0
        },
        {
            "componentType": 5126,
            "type": "VEC3",
            "count": 196,
            "bufferView": 38,
            "byteOffset": 0
        },
        {
            "componentType": 5126,
            "type": "VEC4",
            "count": 196,
            "bufferView": 39,
            "byteOffset": 0
        },
        {
            "componentType": 5126,
            "type": "VEC3",
            "count": 196,
            "bufferView": 40,
            "byteOffset": 0
        },
        {
            "componentType": 5126,
            "type": "VEC4",
            "count": 196,
            "bufferView": 41,
            "byteOffset": 0
        },
        {
            "componentType": 5123,
            "type": "SCALAR",
            "count": 27540,
            "bufferView": 42,
            "byteOffset": 0
        },
        {
            "componentType": 5126,
            "type": "VEC3",
            "count": 7693,
            "bufferView": 43,
            "byteOffset": 0,
            "min": [
                -0.925157964229584,
                -0.00300799985416234,
                -0.291794985532761
            ],
            "max": [
                0.925157964229584,
                2.20971488952637,
                0.285631984472275
            ]
        },
        {
            "componentType": 5126,
            "type": "VEC3",
            "count": 7693,
            "bufferView": 44,
            "byteOffset": 0
        },
        {
            "componentType": 5126,
            "type": "VEC2",
            "count": 7693,
            "bufferView": 45,
            "byteOffset": 0
        },
        {
            "componentType": 5123,
            "type": "VEC4",
            "count": 7693,
            "bufferView": 46,
            "byteOffset": 0
        },
        {
            "componentType": 5126,
            "type": "VEC4",
            "count": 7693,
            "bufferView": 47,
            "byteOffset": 0
        },
        {
            "componentType": 5123,
            "type": "SCALAR",
            "count": 4302,
            "bufferView": 48,
            "byteOffset": 0
        },
        {
            "componentType": 5126,
            "type": "VEC3",
            "count": 1527,
            "bufferView": 49,
            "byteOffset": 0,
            "min": [
                0.704843938350677,
                0.499925971031189,
                -0.143566995859146
            ],
            "max": [
                1.91039597988129,
                0.908140003681183,
                0.0730699971318245
            ]
        },
        {
            "componentType": 5126,
            "type": "VEC3",
            "count": 1527,
            "bufferView": 50,
            "byteOffset": 0
        },
        {
            "componentType": 5126,
            "type": "VEC2",
            "count": 1527,
            "bufferView": 51,
            "byteOffset": 0
        },
        {
            "componentType": 5126,
            "type": "MAT4",
            "count": 41,
            "bufferView": 52,
            "byteOffset": 0
        }
    ],
    "samplers": [
        {}
    ],
    "materials": [
        {
            "name": "lambert1",
            "alphaMode": "OPAQUE",
            "extras": {
                "fromFBX": {
                    "shadingModel": "Lambert",
                    "isTruePBR": false
                }
            },
            "pbrMetallicRoughness": {
                "baseColorFactor": [
                    0.400000005960464,
                    0.400000005960464,
                    0.400000005960464,
                    1.0
                ],
                "metallicFactor": 0.200000002980232,
                "roughnessFactor": 0.800000011920929
            }
        },
        {
            "name": "lambert1",
            "alphaMode": "OPAQUE",
            "extras": {
                "fromFBX": {
                    "shadingModel": "Lambert",
                    "isTruePBR": false
                }
            },
            "pbrMetallicRoughness": {
                "baseColorFactor": [
                    0.400000005960464,
                    0.400000005960464,
                    0.400000005960464,
                    1.0
                ],
                "metallicFactor": 0.200000002980232,
                "roughnessFactor": 0.800000011920929
            }
        }
    ],
    "meshes": [
        {
            "name": "Player",
            "primitives": [
                {
                    "material": 1,
                    "mode": 4,
                    "attributes": {
                        "JOINTS_0": 46,
                        "NORMAL": 44,
                        "POSITION": 43,
                        "TEXCOORD_0": 45,
                        "WEIGHTS_0": 47
                    },
                    "indices": 42
                }
            ]
        },
        {
            "name": "Gun",
            "primitives": [
                {
                    "material": 1,
                    "mode": 4,
                    "attributes": {
                        "NORMAL": 50,
                        "POSITION": 49,
                        "TEXCOORD_0": 51
                    },
                    "indices": 48
                }
            ]
        }
    ],
    "skins": [
        {
            "joints": [
                3,
                4,
                5,
                6,
                7,
                8,
                9,
                10,
                11,
                12,
                13,
                14,
                15,
                16,
                17,
                18,
                19,
                20,
                21,
                22,
                23,
                24,
                25,
                26,
                27,
                28,
                29,
                30,
                31,
                32,
                33,
                34,
                35,
                36,
                37,
                38,
                39,
                46,
                40,
                41,
                42
            ],
            "inverseBindMatrices": 52,
            "skeleton": 3
        }
    ],
    "animations": [
        {
            "name": "Player",
            "channels": [
                {
                    "sampler": 0,
                    "target": {
                        "node": 3,
                        "path": "translation"
                    }
                },
                {
                    "sampler": 1,
                    "target": {
                        "node": 3,
                        "path": "rotation"
                    }
                },
                {
                    "sampler": 2,
                    "target": {
                        "node": 4,
                        "path": "rotation"
                    }
                },
                {
                    "sampler": 3,
                    "target": {
                        "node": 5,
                        "path": "rotation"
                    }
                },
                {
                    "sampler": 4,
                    "target": {
                        "node": 6,
                        "path": "rotation"
                    }
                },
                {
                    "sampler": 5,
                    "target": {
                        "node": 7,
                        "path": "rotation"
                    }
                },
                {
                    "sampler": 6,
                    "target": {
                        "node": 8,
                        "path": "rotation"
                    }
                },
                {
                    "sampler": 7,
                    "target": {
                        "node": 9,
                        "path": "rotation"
                    }
                },
                {
                    "sampler": 8,
                    "target": {
                        "node": 10,
                        "path": "rotation"
                    }
                },
                {
                    "sampler": 9,
                    "target": {
                        "node": 11,
                        "path": "rotation"
                    }
                },
                {
                    "sampler": 10,
                    "target": {
                        "node": 12,
                        "path": "rotation"
                    }
                },
                {
                    "sampler": 11,
                    "target": {
                        "node": 13,
                        "path": "rotation"
                    }
                },
                {
                    "sampler": 12,
                    "target": {
                        "node": 14,
                        "path": "rotation"
                    }
                },
                {
                    "sampler": 13,
                    "target": {
                        "node": 15,
                        "path": "rotation"
                    }
                },
                {
                    "sampler": 14,
                    "target": {
                        "node": 16,
                        "path": "rotation"
                    }
                },
                {
                    "sampler": 15,
                    "target": {
                        "node": 17,
                        "path": "rotation"
                    }
                },
                {
                    "sampler": 16,
                    "target": {
                        "node": 18,
                        "path": "rotation"
                    }
                },
                {
                    "sampler": 17,
                    "target": {
                        "node": 19,
                        "path": "rotation"
                    }
                },
                {
                    "sampler": 18,
                    "target": {
                        "node": 20,
                        "path": "rotation"
                    }
                },
                {
                    "sampler": 19,
                    "target": {
                        "node": 21,
                        "path": "rotation"
                    }
                },
                {
                    "sampler": 20,
                    "target": {
                        "node": 22,
                        "path": "rotation"
                    }
                },
                {
                    "sampler": 21,
                    "target": {
                        "node": 23,
                        "path": "rotation"
                    }
                },
                {
                    "sampler": 22,
                    "target": {
                        "node": 24,
                        "path": "rotation"
                    }
                },
                {
                    "sampler": 23,
                    "target": {
                        "node": 25,
                        "path": "rotation"
                    }
                },
                {
                    "sampler": 24,
                    "target": {
                        "node": 26,
                        "path": "rotation"
                    }
                },
                {
                    "sampler": 25,
                    "target": {
                        "node": 27,
                        "path": "rotation"
                    }
                },
                {
                    "sampler": 26,
                    "target": {
                        "node": 28,
                        "path": "rotation"
                    }
                },
                {
                    "sampler": 27,
                    "target": {
                        "node": 29,
                        "path": "rotation"
                    }
                },
                {
                    "sampler": 28,
                    "target": {
                        "node": 30,
                        "path": "rotation"
                    }
                },
                {
                    "sampler": 29,
                    "target": {
                        "node": 31,
                        "path": "rotation"
                    }
                },
                {
                    "sampler": 30,
                    "target": {
                        "node": 32,
                        "path": "rotation"
                    }
                },
                {
                    "sampler": 31,
                    "target": {
                        "node": 34,
                        "path": "rotation"
                    }
                },
                {
                    "sampler": 32,
                    "target": {
                        "node": 35,
                        "path": "rotation"
                    }
                },
                {
                    "sampler": 33,
                    "target": {
                        "node": 37,
                        "path": "rotation"
                    }
                },
                {
                    "sampler": 34,
                    "target": {
                        "node": 38,
                        "path": "rotation"
                    }
                },
                {
                    "sampler": 35,
                    "target": {
                        "node": 40,
                        "path": "rotation"
                    }
                },
                {
                    "sampler": 36,
                    "target": {
                        "node": 41,
                        "path": "rotation"
                    }
                },
                {
                    "sampler": 37,
                    "target": {
                        "node": 44,
                        "path": "translation"
                    }
                },
                {
                    "sampler": 38,
                    "target": {
                        "node": 44,
                        "path": "rotation"
                    }
                },
                {
                    "sampler": 39,
                    "target": {
                        "node": 46,
                        "path": "translation"
                    }
                },
                {
                    "sampler": 40,
                    "target": {
                        "node": 46,
                        "path": "rotation"
                    }
                }
            ],
            "samplers": [
                {
                    "input": 0,
                    "interpolation": "LINEAR",
                    "output": 1
                },
                {
                    "input": 0,
                    "interpolation": "LINEAR",
                    "output": 2
                },
                {
                    "input": 0,
                    "interpolation": "LINEAR",
                    "output": 3
                },
                {
                    "input": 0,
                    "interpolation": "LINEAR",
                    "output": 4
                },
                {
                    "input": 0,
                    "interpolation": "LINEAR",
                    "output": 5
                },
                {
                    "input": 0,
                    "interpolation": "LINEAR",
                    "output": 6
                },
                {
                    "input": 0,
                    "interpolation": "LINEAR",
                    "output": 7
                },
                {
                    "input": 0,
                    "interpolation": "LINEAR",
                    "output": 8
                },
                {
                    "input": 0,
                    "interpolation": "LINEAR",
                    "output": 9
                },
                {
                    "input": 0,
                    "interpolation": "LINEAR",
                    "output": 10
                },
                {
                    "input": 0,
                    "interpolation": "LINEAR",
                    "output": 11
                },
                {
                    "input": 0,
                    "interpolation": "LINEAR",
                    "output": 12
                },
                {
                    "input": 0,
                    "interpolation": "LINEAR",
                    "output": 13
                },
                {
                    "input": 0,
                    "interpolation": "LINEAR",
                    "output": 14
                },
                {
                    "input": 0,
                    "interpolation": "LINEAR",
                    "output": 15
                },
                {
                    "input": 0,
                    "interpolation": "LINEAR",
                    "output": 16
                },
                {
                    "input": 0,
                    "interpolation": "LINEAR",
                    "output": 17
                },
                {
                    "input": 0,
                    "interpolation": "LINEAR",
                    "output": 18
                },
                {
                    "input": 0,
                    "interpolation": "LINEAR",
                    "output": 19
                },
                {
                    "input": 0,
                    "interpolation": "LINEAR",
                    "output": 20
                },
                {
                    "input": 0,
                    "interpolation": "LINEAR",
                    "output": 21
                },
                {
                    "input": 0,
                    "interpolation": "LINEAR",
                    "output": 22
                },
                {
                    "input": 0,
                    "interpolation": "LINEAR",
                    "output": 23
                },
                {
                    "input": 0,
                    "interpolation": "LINEAR",
                    "output": 24
                },
                {
                    "input": 0,
                    "interpolation": "LINEAR",
                    "output": 25
                },
                {
                    "input": 0,
                    "interpolation": "LINEAR",
                    "output": 26
                },
                {
                    "input": 0,
                    "interpolation": "LINEAR",
                    "output": 27
                },
                {
                    "input": 0,
                    "interpolation": "LINEAR",
                    "output": 28
                },
                {
                    "input": 0,
                    "interpolation": "LINEAR",
                    "output": 29
                },
                {
                    "input": 0,
                    "interpolation": "LINEAR",
                    "output": 30
                },
                {
                    "input": 0,
                    "interpolation": "LINEAR",
                    "output": 31
                },
                {
                    "input": 0,
                    "interpolation": "LINEAR",
                    "output": 32
                },
                {
                    "input": 0,
                    "interpolation": "LINEAR",
                    "output": 33
                },
                {
                    "input": 0,
                    "interpolation": "LINEAR",
                    "output": 34
                },
                {
                    "input": 0,
                    "interpolation": "LINEAR",
                    "output": 35
                },
                {
                    "input": 0,
                    "interpolation": "LINEAR",
                    "output": 36
                },
                {
                    "input": 0,
                    "interpolation": "LINEAR",
                    "output": 37
                },
                {
                    "input": 0,
                    "interpolation": "LINEAR",
                    "output": 38
                },
                {
                    "input": 0,
                    "interpolation": "LINEAR",
                    "output": 39
                },
                {
                    "input": 0,
                    "interpolation": "LINEAR",
                    "output": 40
                },
                {
                    "input": 0,
                    "interpolation": "LINEAR",
                    "output": 41
                }
            ]
        }
    ],
    "nodes": [
        {
            "name": "RootNode",
            "translation": [
                0.0,
                0.0,
                0.0
            ],
            "rotation": [
                0.0,
                0.0,
                0.0,
                1.0
            ],
            "scale": [
                1.0,
                1.0,
                1.0
            ],
            "children": [
                1,
                2,
                43,
                44,
                45
            ]
        },
        {
            "name": "Player",
            "translation": [
                0.0,
                0.0,
                0.0
            ],
            "rotation": [
                0.0,
                0.0,
                0.0,
                1.0
            ],
            "scale": [
                1.0,
                1.0,
                1.0
            ],
            "mesh": 0,
            "skin": 0
        },
        {
            "name": "Character1_Reference",
            "translation": [
                0.0,
                0.0,
                0.0
            ],
            "rotation": [
                0.0,
                0.0,
                0.0,
                1.0
            ],
            "scale": [
                1.0,
                1.0,
                1.0
            ],
            "children": [
                3
            ]
        },
        {
            "name": "Character1_Hips",
            "translation": [
                0.0,
                1.16906881332397,
                0.0
            ],
            "rotation": [
                0.0,
                0.0,
                0.0,
                1.0
            ],
            "scale": [
                1.0,
                1.0,
                1.0
            ],
            "children": [
                4,
                8,
                12
            ]
        },
        {
            "name": "Character1_LeftUpLeg",
            "translation": [
                0.145727261900902,
                -0.063154399394989,
                0.0283347070217133
            ],
            "rotation": [
                -4.10445500165224e-06,
                -0.0,
                0.0,
                1.0
            ],
            "scale": [
                1.0,
                1.0,
                1.0
            ],
            "children": [
                5
            ]
        },
        {
            "name": "Character1_LeftLeg",
            "translation": [
                0.0572574846446514,
                -0.539998531341553,
                0.00256580975838006
            ],
            "rotation": [
                4.07140396418981e-06,
                0.0,
                0.0,
                1.0
            ],
            "scale": [
                1.0,
                1.0,
                1.0
            ],
            "children": [
                6
            ]
        },
        {
            "name": "Character1_LeftFoot",
            "translation": [
                0.0394534207880497,
                -0.42157980799675,
                -0.0759405121207237
            ],
            "rotation": [
                0.0,
                0.0,
                0.0,
                1.0
            ],
            "scale": [
                1.0,
                1.0,
                1.0
            ],
            "children": [
                7
            ]
        },
        {
            "name": "Character1_LeftToeBase",
            "translation": [
                0.0316494703292847,
                -0.11027118563652,
                0.130963802337646
            ],
            "rotation": [
                0.0,
                0.0,
                0.0,
                1.0
            ],
            "scale": [
                1.0,
                1.0,
                1.0
            ]
        },
        {
            "name": "Character1_RightUpLeg",
            "translation": [
                -0.145727217197418,
                -0.0631544068455696,
                0.0283347144722939
            ],
            "rotation": [
                -4.45765908807516e-06,
                -0.0,
                0.0,
                1.0
            ],
            "scale": [
                1.0,
                1.0,
                1.0
            ],
            "children": [
                9
            ]
        },
        {
            "name": "Character1_RightLeg",
            "translation": [
                -0.057257454842329,
                -0.539998829364777,
                0.0025658099912107
            ],
            "rotation": [
                4.43950921180658e-06,
                0.0,
                0.0,
                1.0
            ],
            "scale": [
                1.0,
                1.0,
                1.0
            ],
            "children": [
                10
            ]
        },
        {
            "name": "Character1_RightFoot",
            "translation": [
                -0.0394534133374691,
                -0.421579658985138,
                -0.0759405270218849
            ],
            "rotation": [
                3.30872106970553e-24,
                0.0,
                0.0,
                1.0
            ],
            "scale": [
                1.0,
                1.0,
                1.0
            ],
            "children": [
                11
            ]
        },
        {
            "name": "Character1_RightToeBase",
            "translation": [
                -0.031649474054575,
                -0.11027117818594,
                0.130963772535324
            ],
            "rotation": [
                3.30872363350347e-24,
                1.27608101863075e-08,
                5.63856545774467e-32,
                1.0
            ],
            "scale": [
                1.0,
                1.0,
                1.0
            ]
        },
        {
            "name": "Character1_Spine",
            "translation": [
                1.48619483386625e-09,
                0.11827664077282,
                0.0230631362646818
            ],
            "rotation": [
                0.0,
                0.0,
                0.0,
                1.0
            ],
            "scale": [
                1.0,
                1.0,
                1.0
            ],
            "children": [
                13
            ]
        },
        {
            "name": "Character1_Spine1",
            "translation": [
                -1.36486955071291e-09,
                0.227975532412529,
                0.0136614441871643
            ],
            "rotation": [
                0.0,
                0.0,
                0.0,
                1.0
            ],
            "scale": [
                1.0,
                1.0,
                1.0
            ],
            "children": [
                14,
                27,
                40
            ]
        },
        {
            "name": "Character1_LeftShoulder",
            "translation": [
                0.0535974912345409,
                0.212319403886795,
                -0.0595267862081528
            ],
            "rotation": [
                0.0,
                0.0,
                0.0,
                1.0
            ],
            "scale": [
                1.0,
                1.0,
                1.0
            ],
            "children": [
                15
            ]
        },
        {
            "name": "Character1_LeftArm",
            "translation": [
                0.123044200241566,
                -0.0399782545864582,
                -0.00686191488057375
            ],
            "rotation": [
                -5.56670283913263e-06,
                -5.21901620231802e-06,
                0.24192188680172,
                0.97029572725296
            ],
            "scale": [
                1.0,
                1.0,
                1.0
            ],
            "children": [
                16
            ]
        },
        {
            "name": "Character1_LeftForeArm",
            "translation": [
                0.28657728433609,
                -0.186643898487091,
                -0.0201965812593699
            ],
            "rotation": [
                4.13693624068401e-06,
                6.52950348012382e-06,
                -6.10947097356984e-07,
                1.0
            ],
            "scale": [
                1.0,
                1.0,
                1.0
            ],
            "children": [
                17
            ]
        },
        {
            "name": "Character1_LeftHand",
            "translation": [
                0.289744019508362,
                -0.147336348891258,
                0.0193237867206335
            ],
            "rotation": [
                -4.23516524114248e-22,
                2.04605578619886e-38,
                -4.83111230254125e-17,
                1.0
            ],
            "scale": [
                1.0,
                1.0,
                1.0
            ],
            "children": [
                18,
                21,
                24
            ]
        },
        {
            "name": "Character1_LeftHandThumb1",
            "translation": [
                0.0223909225314856,
                -0.065911553800106,
                0.0568998791277409
            ],
            "rotation": [
                4.23516524114248e-22,
                4.2351647362715e-22,
                -1.98988669194512e-17,
                1.0
            ],
            "scale": [
                1.0,
                1.0,
                1.0
            ],
            "children": [
                19
            ]
        },
        {
            "name": "Character1_LeftHandThumb2",
            "translation": [
                0.0213048029690981,
                -0.0244634915143251,
                0.019120167940855
            ],
            "rotation": [
                0.0110638896003366,
                0.0181198567152023,
                0.0112708890810609,
                0.999711096286774
            ],
            "scale": [
                1.0,
                1.0,
                1.0
            ],
            "children": [
                20
            ]
        },
        {
            "name": "Character1_LeftHandThumb3",
            "translation": [
                0.0236021243035793,
                -0.0293669365346432,
                0.0240438412874937
            ],
            "rotation": [
                3.46944674515846e-18,
                -3.46944695195361e-18,
                5.20417042793042e-18,
                1.0
            ],
            "scale": [
                1.0,
                1.0,
                1.0
            ]
        },
        {
            "name": "Character1_LeftHandIndex1",
            "translation": [
                0.0849143862724304,
                -0.0541070885956287,
                0.0291879028081894
            ],
            "rotation": [
                -5.84298511796533e-08,
                -7.138023505604e-08,
                -4.43677912187468e-08,
                1.0
            ],
            "scale": [
                1.0,
                1.0,
                1.0
            ],
            "children": [
                22
            ]
        },
        {
            "name": "Character1_LeftHandIndex2",
            "translation": [
                0.0404895022511482,
                -0.0352258160710335,
                -0.0010492104338482
            ],
            "rotation": [
                5.84298582850806e-08,
                5.26874737261096e-06,
                -3.3538463672933e-10,
                1.0
            ],
            "scale": [
                1.0,
                1.0,
                1.0
            ],
            "children": [
                23
            ]
        },
        {
            "name": "Character1_LeftHandIndex3",
            "translation": [
                0.0315212346613407,
                -0.0496872887015343,
                0.000937615230213851
            ],
            "rotation": [
                1.38685159403283e-17,
                -3.72160429833457e-05,
                -2.83335882518573e-16,
                1.0
            ],
            "scale": [
                1.0,
                1.0,
                1.0
            ]
        },
        {
            "name": "Character1_LeftHandMiddle1",
            "translation": [
                0.0696928799152374,
                -0.0442111976444721,
                -0.0244931615889072
            ],
            "rotation": [
                4.2351647362715e-22,
                4.23516448383601e-22,
                -1.84833292808015e-17,
                1.0
            ],
            "scale": [
                1.0,
                1.0,
                1.0
            ],
            "children": [
                25
            ]
        },
        {
            "name": "Character1_LeftHandMiddle2",
            "translation": [
                0.0444201715290546,
                -0.0384189262986183,
                -0.00368966814130545
            ],
            "rotation": [
                0.0,
                -0.0,
                -4.75007474141841e-17,
                1.0
            ],
            "scale": [
                1.0,
                1.0,
                1.0
            ],
            "children": [
                26
            ]
        },
        {
            "name": "Character1_LeftHandMiddle3",
            "translation": [
                0.0163618717342615,
                -0.0644892454147339,
                -0.00209795241244137
            ],
            "rotation": [
                -4.2351647362715e-22,
                -4.23516423140052e-22,
                -7.47081008070374e-17,
                1.0
            ],
            "scale": [
                1.0,
                1.0,
                1.0
            ]
        },
        {
            "name": "Character1_RightShoulder",
            "translation": [
                -0.0535975359380245,
                0.212319269776344,
                -0.0595267824828625
            ],
            "rotation": [
                0.0,
                0.0,
                0.0,
                1.0
            ],
            "scale": [
                1.0,
                1.0,
                1.0
            ],
            "children": [
                28
            ]
        },
        {
            "name": "Character1_RightArm",
            "translation": [
                -0.123044200241566,
                -0.0399782136082649,
                -0.00686189020052552
            ],
            "rotation": [
                2.50663197221002e-06,
                -2.30596833716845e-06,
                -0.241921901702881,
                0.97029572725296
            ],
            "scale": [
                1.0,
                1.0,
                1.0
            ],
            "children": [
                29
            ]
        },
        {
            "name": "Character1_RightForeArm",
            "translation": [
                -0.286576926708221,
                -0.186643570661545,
                -0.020196583122015
            ],
            "rotation": [
                -1.83191093583446e-06,
                2.78768175121513e-06,
                5.10674402071087e-12,
                1.0
            ],
            "scale": [
                1.0,
                1.0,
                1.0
            ],
            "children": [
                30
            ]
        },
        {
            "name": "Character1_RightHand",
            "translation": [
                -0.289743959903717,
                -0.14733649790287,
                0.0193239953368902
            ],
            "rotation": [
                -4.78225330815523e-40,
                -4.23516625088444e-22,
                -1.12917670617305e-18,
                1.0
            ],
            "scale": [
                1.0,
                1.0,
                1.0
            ],
            "children": [
                31,
                34,
                37
            ]
        },
        {
            "name": "Character1_RightHandThumb1",
            "translation": [
                -0.0223908927291632,
                -0.0659115612506866,
                0.0582916662096977
            ],
            "rotation": [
                -2.11758198948252e-22,
                -5.30576159884541e-39,
                2.50557540492069e-17,
                1.0
            ],
            "scale": [
                1.0,
                1.0,
                1.0
            ],
            "children": [
                32
            ]
        },
        {
            "name": "Character1_RightHandThumb2",
            "translation": [
                -0.0213047936558723,
                -0.0244635101407766,
                0.0191201847046614
            ],
            "rotation": [
                0.0110638728365302,
                -0.0181199312210083,
                -0.0112709458917379,
                0.999711096286774
            ],
            "scale": [
                1.0,
                1.0,
                1.0
            ],
            "children": [
                33
            ]
        },
        {
            "name": "Character1_RightHandThumb3",
            "translation": [
                -0.0236020870506763,
                -0.0293668732047081,
                0.0240438748151064
            ],
            "rotation": [
                1.73472388956711e-18,
                4.99350287215233e-35,
                2.87855776056575e-17,
                1.0
            ],
            "scale": [
                1.0,
                1.0,
                1.0
            ]
        },
        {
            "name": "Character1_RightHandIndex1",
            "translation": [
                -0.0849143862724304,
                -0.0541070885956287,
                0.029187923297286
            ],
            "rotation": [
                0.0,
                0.0,
                2.54321179191961e-17,
                1.0
            ],
            "scale": [
                1.0,
                1.0,
                1.0
            ],
            "children": [
                35
            ]
        },
        {
            "name": "Character1_RightHandIndex2",
            "translation": [
                -0.040489487349987,
                -0.0352257452905178,
                -0.00104927376378328
            ],
            "rotation": [
                1.19207977318666e-22,
                5.31674959347583e-06,
                -2.24212152310888e-17,
                1.0
            ],
            "scale": [
                1.0,
                1.0,
                1.0
            ],
            "children": [
                36
            ]
        },
        {
            "name": "Character1_RightHandIndex3",
            "translation": [
                -0.0315213166177273,
                -0.0496872663497925,
                0.00093695503892377
            ],
            "rotation": [
                -2.45859363411249e-21,
                -3.7217243516352e-05,
                -6.03708174776722e-17,
                1.0
            ],
            "scale": [
                1.0,
                1.0,
                1.0
            ]
        },
        {
            "name": "Character1_RightHandMiddle1",
            "translation": [
                -0.0696929022669792,
                -0.0442111156880856,
                -0.0244931224733591
            ],
            "rotation": [
                2.11758236813575e-22,
                -4.70313599685945e-40,
                -2.22099607472682e-18,
                1.0
            ],
            "scale": [
                1.0,
                1.0,
                1.0
            ],
            "children": [
                38
            ]
        },
        {
            "name": "Character1_RightHandMiddle2",
            "translation": [
                -0.044420164078474,
                -0.0384189635515213,
                -0.00368973729200661
            ],
            "rotation": [
                -2.26032031183051e-23,
                5.31674868398113e-06,
                4.25132081440558e-18,
                1.0
            ],
            "scale": [
                1.0,
                1.0,
                1.0
            ],
            "children": [
                39
            ]
        },
        {
            "name": "Character1_RightHandMiddle3",
            "translation": [
                -0.0163619853556156,
                -0.0644892901182175,
                -0.00209815171547234
            ],
            "rotation": [
                -9.04968709669257e-22,
                -3.72172398783732e-05,
                -1.86260576411363e-17,
                1.0
            ],
            "scale": [
                1.0,
                1.0,
                1.0
            ]
        },
        {
            "name": "Character1_Neck",
            "translation": [
                -2.48307401307102e-08,
                0.227975249290466,
                -0.0513430722057819
            ],
            "rotation": [
                0.0,
                0.0,
                0.0,
                1.0
            ],
            "scale": [
                1.0,
                1.0,
                1.0
            ],
            "children": [
                41
            ]
        },
        {
            "name": "Character1_Head",
            "translation": [
                -1.14965551745172e-07,
                0.0935672447085381,
                0.0347857102751732
            ],
            "rotation": [
                0.0,
                8.8072235924236e-18,
                0.0,
                1.0
            ],
            "scale": [
                1.0,
                1.0,
                1.0
            ],
            "children": [
                42
            ]
        },
        {
            "name": "Character1_HeadEnd",
            "translation": [
                0.0,
                0.256379991769791,
                0.0
            ],
            "rotation": [
                0.0,
                0.0,
                0.0,
                1.0
            ],
            "scale": [
                1.0,
                1.0,
                1.0
            ]
        },
        {
            "name": "Character1_Ctrl_Reference",
            "translation": [
                0.0,
                0.0,
                0.0
            ],
            "rotation": [
                0.0,
                0.0,
                0.0,
                1.0
            ],
            "scale": [
                1.0,
                1.0,
                1.0
            ]
        },
        {
            "name": "Gun",
            "translation": [
                -0.120996005833149,
                -0.438321799039841,
                0.00577255059033632
            ],
            "rotation": [
                9.53097867295583e-08,
                -2.9719507210757e-07,
                -2.42651339021904e-07,
                1.0
            ],
            "scale": [
                1.0,
                1.0,
                1.0
            ],
            "mesh": 1
        },
        {
            "name": "GunController",
            "translation": [
                -0.752962708473206,
                1.35368204116821,
                -0.0305390581488609
            ],
            "rotation": [
                1.4322275809775e-08,
                -7.45059907103496e-08,
                1.02944874846855e-11,
                1.0
            ],
            "scale": [
                1.00000011920929,
                1.0,
                0.999999940395355
            ],
            "children": [
                46
            ]
        },
        {
            "name": "Character1_Weapon",
            "translation": [
                1.4042421579361,
                -1.05225515365601,
                4.44089199923895e-18
            ],
            "rotation": [
                -3.30872245021211e-24,
                1.32348913785703e-23,
                -1.22464685258517e-16,
                1.0
            ],
            "scale": [
                1.0,
                1.0,
                1.0
            ]
        }
    ]
}