# Blender 3.3.1
# www.blender.org
o column
v -1.000000 7.000000 -0.999999
v -1.000000 7.000000 1.000000
v 0.999999 7.000000 1.000001
v 1.000000 7.000000 -0.999999
v -1.000000 6.000000 -1.000000
v -1.000000 6.000000 1.000001
v 1.000000 6.000000 1.000001
v 1.000000 6.000000 -0.999999
v 0.750000 1.000000 0.000000
v 0.724445 1.000000 0.194114
v 0.649519 1.000000 0.375000
v 0.530330 1.000000 0.530330
v 0.375000 1.000000 0.649519
v 0.194115 1.000000 0.724444
v 0.000000 1.000000 0.750000
v -0.194114 1.000000 0.724444
v -0.375000 1.000000 0.649519
v -0.530330 1.000000 0.530330
v -0.649519 1.000000 0.375000
v -0.724444 1.000000 0.194114
v -0.750000 1.000000 0.000000
v 0.750000 6.000000 -0.000000
v 0.724445 6.000000 0.194114
v 0.649519 6.000000 0.375000
v 0.530330 6.000000 0.530331
v 0.375000 6.000000 0.649520
v 0.194114 6.000000 0.724445
v -0.000001 6.000000 0.750001
v -0.194115 6.000000 0.724445
v -0.375001 6.000000 0.649519
v -0.530331 6.000000 0.530330
v -0.649520 6.000000 0.374999
v -0.724445 6.000000 0.194113
v -0.750000 6.000000 -0.000002
v 1.000000 0.000000 -1.000000
v 1.000000 -0.000000 1.000000
v -1.000000 -0.000000 1.000000
v -1.000000 0.000000 -1.000000
v 1.000000 1.000000 -1.000000
v 0.999999 1.000000 1.000001
v -1.000000 1.000000 1.000000
v -1.000000 1.000000 -1.000000
v 0.750000 6.000000 0.000003
v 0.724445 6.000000 -0.194111
v 0.649520 6.000000 -0.374998
v 0.530331 6.000000 -0.530328
v 0.375001 6.000000 -0.649518
v 0.194115 6.000000 -0.724443
v 0.000000 6.000000 -0.749999
v -0.194114 6.000000 -0.724444
v -0.375000 6.000000 -0.649518
v -0.530331 6.000000 -0.530329
v -0.649520 6.000000 -0.374999
v -0.724445 6.000000 -0.194113
v -0.750000 6.000000 0.000001
v 0.750000 1.000000 -0.000001
v 0.724444 1.000000 -0.194115
v 0.649519 1.000000 -0.375000
v 0.530329 1.000000 -0.530331
v 0.374999 1.000000 -0.649519
v 0.194114 1.000000 -0.724445
v -0.000001 1.000000 -0.750000
v -0.194115 1.000000 -0.724445
v -0.375000 1.000000 -0.649519
v -0.530331 1.000000 -0.530330
v -0.649519 1.000000 -0.375000
v -0.724445 1.000000 -0.194114
v -0.750000 1.000000 0.000000
v -0.254129 0.766221 1.733779
v -0.254129 1.233779 1.266221
v 0.254129 0.766221 1.733779
v 0.254129 1.233779 1.266221
v 0.127065 0.766221 1.733779
v -0.127065 0.766221 1.733779
v 0.127065 1.233779 1.266221
v -0.127065 1.233779 1.266221
v -0.254129 -0.000000 1.733779
v 0.254129 -0.000000 1.733779
vn -0.0000 -0.0000 -1.0000
vn -1.0000 -0.0000 -0.0000
vn -0.0000 -0.0000 1.0000
vn 1.0000 -0.0000 -0.0000
vn -0.0000 1.0000 -0.0000
vn -0.0000 -1.0000 -0.0000
vn 0.9914 -0.0000 0.1305
vn 0.9239 -0.0000 0.3827
vn 0.7934 -0.0000 0.6088
vn 0.6088 -0.0000 0.7934
vn 0.3827 -0.0000 0.9239
vn 0.1305 -0.0000 0.9914
vn -0.1305 -0.0000 0.9914
vn -0.3827 -0.0000 0.9239
vn -0.6088 -0.0000 0.7934
vn -0.7934 -0.0000 0.6088
vn -0.9239 -0.0000 0.3827
vn -0.9914 -0.0000 0.1305
vn 0.9914 -0.0000 -0.1305
vn 0.9239 -0.0000 -0.3827
vn 0.7934 -0.0000 -0.6088
vn 0.6088 -0.0000 -0.7934
vn 0.3827 -0.0000 -0.9239
vn 0.1305 -0.0000 -0.9914
vn -0.1305 -0.0000 -0.9914
vn -0.3827 -0.0000 -0.9239
vn -0.6088 -0.0000 -0.7934
vn -0.7934 -0.0000 -0.6088
vn -0.9239 -0.0000 -0.3827
vn -0.9914 -0.0000 -0.1305
vn -0.0000 0.7514 -0.6598
vn -0.0000 0.7071 0.7071
vn 0.4283 0.6390 0.6390
vn -0.4283 0.6390 0.6390
vn -0.7013 -0.0000 0.7129
vn 0.7013 -0.0000 0.7129
vt 0.694498 0.996237
vt 0.685804 0.630129
vt 0.993021 0.997014
vt 0.693712 0.633235
vt 0.696609 0.994062
vt 0.404893 0.996245
vt 0.695822 0.634303
vt 0.704885 0.998469
vt 0.405681 0.632632
vt 0.993809 0.633401
vt 0.684641 0.999915
vt 0.698788 0.636577
vt 0.405053 0.629560
vt 0.999677 0.622774
vt 0.409020 0.996622
vt 0.408233 0.633620
vt 0.410977 0.994447
vt 0.998888 0.250021
vt 0.410190 0.634687
vt 0.419307 1.000000
vt 0.397366 0.250791
vt 0.413209 0.638109
vt 0.403890 0.999346
vt 0.398155 0.623543
vt 0.392625 0.000006
vt 0.360271 0.000006
vt 0.327916 0.000006
vt 0.295562 0.000006
vt 0.263207 0.000006
vt 0.230853 0.000006
vt 0.198499 0.000006
vt 0.166144 0.000006
vt 0.133790 0.000006
vt 0.101435 0.000006
vt 0.069081 0.000006
vt 0.036726 0.000006
vt 0.004372 0.000006
vt 0.392625 0.999996
vt 0.360271 0.999996
vt 0.327916 0.999996
vt 0.295562 0.999996
vt 0.263207 0.999996
vt 0.230853 0.999996
vt 0.198498 0.999996
vt 0.166144 0.999996
vt 0.133790 0.999996
vt 0.101435 0.999996
vt 0.069081 0.999996
vt 0.036726 0.999996
vt 0.004372 0.999996
vt 0.413209 0.638109
vt 0.403890 0.999346
vt 0.419307 1.000000
vt 0.856686 0.647658
vt 0.408233 0.633620
vt 0.506133 0.631546
vt 0.409020 0.996622
vt 0.405053 0.629560
vt 0.999710 0.250522
vt 0.684641 0.999915
vt 0.698788 0.636577
vt 0.394666 0.000183
vt 0.538308 0.832972
vt 0.398542 0.249753
vt 0.704885 0.998469
vt 0.856686 0.908007
vt 0.508440 0.819178
vt 0.402460 0.920187
vt 0.397753 0.623851
vt 0.693712 0.633235
vt 0.879263 0.000092
vt 0.998922 0.624620
vt 0.694498 0.996237
vt 0.685804 0.630129
vt 0.004372 0.999996
vt 0.036726 0.999996
vt 0.069081 0.999996
vt 0.101435 0.999996
vt 0.133790 0.999996
vt 0.166144 0.999996
vt 0.198498 0.999996
vt 0.230853 0.999996
vt 0.263207 0.999996
vt 0.295562 0.999996
vt 0.327916 0.999996
vt 0.360271 0.999996
vt 0.392625 0.999996
vt 0.004372 0.000006
vt 0.036726 0.000006
vt 0.069081 0.000006
vt 0.101435 0.000006
vt 0.133790 0.000006
vt 0.166144 0.000006
vt 0.198499 0.000006
vt 0.230853 0.000006
vt 0.263207 0.000006
vt 0.295562 0.000006
vt 0.327916 0.000006
vt 0.360271 0.000006
vt 0.392625 0.000006
vt 0.912281 0.663538
vt 0.690472 0.991974
vt 0.706397 0.786404
vt 0.912183 0.920187
vt 0.399557 0.786464
vt 0.912281 0.979075
vt 0.757829 0.084889
vt 0.399557 0.786464
vt 0.930034 0.680384
vt 0.690472 0.715831
vt 0.418787 0.847143
vt 0.930034 0.971541
vt 0.518768 0.084964
vt 0.706397 0.786404
vt 0.661044 0.482346
vt 0.400402 0.842345
vt 0.707242 0.842285
vt 0.732919 0.482223
vt 0.707242 0.842285
vt 0.660889 0.392808
vt 0.400402 0.842345
vt 0.732763 0.392685
vt 0.414328 0.991974
vt 0.991620 0.699024
vt 0.418787 0.647658
vt 0.414328 0.715831
s 0
f 1/2/1 8/23/1 5/13/1
f 5/15/2 2/4/2 1/1/2
f 3/7/3 6/17/3 7/19/3
f 4/12/4 7/20/4 8/22/4
f 1/3/5 3/9/5 4/10/5
f 8/24/6 6/18/6 5/14/6
f 22/38/7 10/26/7 9/25/7
f 23/39/8 11/27/8 10/26/8
f 24/40/9 12/28/9 11/27/9
f 25/41/10 13/29/10 12/28/10
f 26/42/11 14/30/11 13/29/11
f 27/43/12 15/31/12 14/30/12
f 28/44/13 16/32/13 15/31/13
f 29/45/14 17/33/14 16/32/14
f 30/46/15 18/34/15 17/33/15
f 31/47/16 19/35/16 18/34/16
f 32/48/17 20/36/17 19/35/17
f 33/49/18 21/37/18 20/36/18
f 42/72/5 40/64/5 39/59/5
f 39/61/4 36/53/4 35/51/4
f 41/70/2 38/57/2 37/55/2
f 35/52/1 42/74/1 39/60/1
f 57/89/19 43/75/19 56/88/19
f 45/77/20 57/89/20 58/90/20
f 46/78/21 58/90/21 59/91/21
f 47/79/22 59/91/22 60/92/22
f 48/80/23 60/92/23 61/93/23
f 49/81/24 61/93/24 62/94/24
f 50/82/25 62/94/25 63/95/25
f 51/83/26 63/95/26 64/96/26
f 52/84/27 64/96/27 65/97/27
f 53/85/28 65/97/28 66/98/28
f 54/86/29 66/98/29 67/99/29
f 55/87/30 67/99/30 68/100/30
f 41/71/31 72/113/31 40/62/31
f 72/114/32 73/116/32 71/108/32
f 69/103/32 76/121/32 70/105/32
f 75/120/32 74/118/32 73/115/32
f 40/63/33 72/112/33 71/109/33
f 41/67/34 69/101/34 70/106/34
f 77/123/3 71/110/3 69/102/3
f 37/56/35 69/104/35 41/68/35
f 36/54/36 71/111/36 78/125/36
f 1/2/1 4/11/1 8/23/1
f 5/15/2 6/16/2 2/4/2
f 3/7/3 2/5/3 6/17/3
f 4/12/4 3/8/4 7/20/4
f 1/3/5 2/6/5 3/9/5
f 8/24/6 7/21/6 6/18/6
f 22/38/7 23/39/7 10/26/7
f 23/39/8 24/40/8 11/27/8
f 24/40/9 25/41/9 12/28/9
f 25/41/10 26/42/10 13/29/10
f 26/42/11 27/43/11 14/30/11
f 27/43/12 28/44/12 15/31/12
f 28/44/13 29/45/13 16/32/13
f 29/45/14 30/46/14 17/33/14
f 30/46/15 31/47/15 18/34/15
f 31/47/16 32/48/16 19/35/16
f 32/48/17 33/49/17 20/36/17
f 33/49/18 34/50/18 21/37/18
f 42/72/5 41/69/5 40/64/5
f 39/61/4 40/65/4 36/53/4
f 41/70/2 42/73/2 38/57/2
f 35/52/1 38/58/1 42/74/1
f 57/89/19 44/76/19 43/75/19
f 45/77/20 44/76/20 57/89/20
f 46/78/21 45/77/21 58/90/21
f 47/79/22 46/78/22 59/91/22
f 48/80/23 47/79/23 60/92/23
f 49/81/24 48/80/24 61/93/24
f 50/82/25 49/81/25 62/94/25
f 51/83/26 50/82/26 63/95/26
f 52/84/27 51/83/27 64/96/27
f 53/85/28 52/84/28 65/97/28
f 54/86/29 53/85/29 66/98/29
f 55/87/30 54/86/30 67/99/30
f 41/71/31 70/107/31 72/113/31
f 72/114/32 75/119/32 73/116/32
f 69/103/32 74/117/32 76/121/32
f 75/120/32 76/122/32 74/118/32
f 77/123/3 78/126/3 71/110/3
f 37/56/35 77/124/35 69/104/35
f 36/54/36 40/66/36 71/111/36
